<svg xmlns="http://www.w3.org/2000/svg" viewBox="0 0 144 112.43"><defs><style>.cls-1{fill:#7d7d7d;}</style></defs><g id="レイヤー_2" data-name="レイヤー 2"><g id="txt"><path class="cls-1" d="M52.56,31.09l-7.06,6.3q-3.7-5.23-7.57-5.23a4.56,4.56,0,0,0-3.06,1,3,3,0,0,0-1.2,2.28,3.88,3.88,0,0,0,.85,2.39,66.21,66.21,0,0,0,7,6.46q5.47,4.58,6.63,5.77a20.46,20.46,0,0,1,4.12,5.62,14.22,14.22,0,0,1,1.21,5.86,13.46,13.46,0,0,1-4.28,10.23q-4.27,4-11.16,4a16.5,16.5,0,0,1-9.36-2.65,20.83,20.83,0,0,1-6.83-8.3l8-4.87q3.62,6.68,8.33,6.68a6.14,6.14,0,0,0,4.14-1.44A4.29,4.29,0,0,0,44,61.9a5.77,5.77,0,0,0-1.26-3.42,37,37,0,0,0-5.57-5.23c-5.47-4.46-9-7.92-10.59-10.34a13.15,13.15,0,0,1-2.39-7.27,11.87,11.87,0,0,1,4-9A13.77,13.77,0,0,1,38,22.92a15.44,15.44,0,0,1,7.17,1.75,26.42,26.42,0,0,1,7.36,6.42"/><path class="cls-1" d="M63.52,64.71l-1.37,1.37a2.29,2.29,0,0,0-1.51-.82.91.91,0,0,0-.58.16.45.45,0,0,0-.08.7,2.5,2.5,0,0,0,.66.4l.81.4a4.81,4.81,0,0,1,1.75,1.26,2.62,2.62,0,0,1-.38,3.43,3.35,3.35,0,0,1-2.29.76,3.62,3.62,0,0,1-3-1.48l1.34-1.47a3,3,0,0,0,.91.72,1.92,1.92,0,0,0,.92.28,1.12,1.12,0,0,0,.7-.21.59.59,0,0,0,.26-.47c0-.34-.32-.66-1-1l-.74-.37c-1.42-.71-2.13-1.58-2.13-2.65A2.28,2.28,0,0,1,58.6,64a2.88,2.88,0,0,1,2-.73,3.57,3.57,0,0,1,2.88,1.45"/><path class="cls-1" d="M71.8,63.46H74v8.7H71.8v-.93a4.3,4.3,0,0,1-1.29.88,3.55,3.55,0,0,1-1.39.26,3.87,3.87,0,0,1-2.92-1.3A4.54,4.54,0,0,1,65,67.83a4.67,4.67,0,0,1,1.19-3.29,3.91,3.91,0,0,1,4.37-1,4.18,4.18,0,0,1,1.27.87Zm-2.28,1.8a2.22,2.22,0,0,0-1.68.71,2.86,2.86,0,0,0,0,3.68,2.18,2.18,0,0,0,1.66.72,2.24,2.24,0,0,0,1.71-.72,2.62,2.62,0,0,0,.67-1.86A2.53,2.53,0,0,0,71.23,66a2.27,2.27,0,0,0-1.71-.71"/><path class="cls-1" d="M78.36,60.1v4.34a4.21,4.21,0,0,1,1.29-.89,3.73,3.73,0,0,1,1.46-.29A3.81,3.81,0,0,1,84,64.54a4.62,4.62,0,0,1,1.19,3.29A4.5,4.5,0,0,1,84,71.07a3.86,3.86,0,0,1-2.91,1.3,3.6,3.6,0,0,1-1.4-.26,4.3,4.3,0,0,1-1.29-.88v.93H76.18V60.1Zm2.27,5.16a2.24,2.24,0,0,0-1.69.71,2.46,2.46,0,0,0-.68,1.82,2.54,2.54,0,0,0,.68,1.86,2.21,2.21,0,0,0,1.69.72,2.24,2.24,0,0,0,1.68-.72A2.63,2.63,0,0,0,83,67.8,2.6,2.6,0,0,0,82.32,66a2.24,2.24,0,0,0-1.69-.71"/><path class="cls-1" d="M91.07,63.26a4.58,4.58,0,0,1,2.3.61,4.44,4.44,0,0,1,1.69,1.67,4.6,4.6,0,0,1,0,4.56,4.3,4.3,0,0,1-1.66,1.67,4.58,4.58,0,0,1-2.32.6,4.33,4.33,0,0,1-3.18-1.32,4.57,4.57,0,0,1,3.18-7.79m0,2.05a2.19,2.19,0,0,0-1.66.71,2.5,2.5,0,0,0-.67,1.81,2.59,2.59,0,0,0,.66,1.84,2.18,2.18,0,0,0,1.67.7,2.2,2.2,0,0,0,1.68-.71,2.58,2.58,0,0,0,.67-1.83A2.51,2.51,0,0,0,92.79,66a2.2,2.2,0,0,0-1.68-.7"/><path class="cls-1" d="M97.46,60.1h2.18v4.27a5,5,0,0,1,1.29-.84,3.38,3.38,0,0,1,1.31-.27,3,3,0,0,1,2.19.9,3.08,3.08,0,0,1,.76,2.27v5.73H103V68.37a9.26,9.26,0,0,0-.14-2.05,1.27,1.27,0,0,0-1.34-1.06,1.64,1.64,0,0,0-1.13.44,2.33,2.33,0,0,0-.65,1.2,9.11,9.11,0,0,0-.1,1.78v3.48H97.46Z"/><path class="cls-1" d="M113.7,63.46h2.18v8.7H113.7v-.93a4.39,4.39,0,0,1-1.28.88,3.6,3.6,0,0,1-1.4.26,3.89,3.89,0,0,1-2.92-1.3,4.54,4.54,0,0,1-1.23-3.24,4.67,4.67,0,0,1,1.19-3.29,3.83,3.83,0,0,1,2.9-1.28,3.73,3.73,0,0,1,1.46.29,4,4,0,0,1,1.28.87Zm-2.28,1.8a2.24,2.24,0,0,0-1.68.71,2.6,2.6,0,0,0-.66,1.83,2.64,2.64,0,0,0,.68,1.85,2.32,2.32,0,0,0,3.36,0,2.54,2.54,0,0,0,.68-1.86,2.46,2.46,0,0,0-.68-1.82,2.23,2.23,0,0,0-1.7-.71"/><path class="cls-1" d="M118.08,63.46h2.19v.91a5.27,5.27,0,0,1,1.34-.87,3.37,3.37,0,0,1,1.24-.24,3,3,0,0,1,2.2.9,3.1,3.1,0,0,1,.76,2.27v5.73h-2.18V68.37a9.73,9.73,0,0,0-.14-2.06,1.38,1.38,0,0,0-.48-.78,1.36,1.36,0,0,0-.86-.27,1.6,1.6,0,0,0-1.13.44,2.44,2.44,0,0,0-.66,1.23,10.38,10.38,0,0,0-.09,1.76v3.47h-2.19Z"/><path class="cls-1" d="M128.76,59.89a1.33,1.33,0,0,1,1,.42,1.44,1.44,0,0,1,0,2,1.32,1.32,0,0,1-1,.41,1.34,1.34,0,0,1-1-.42,1.4,1.4,0,0,1-.4-1,1.34,1.34,0,0,1,.4-1,1.36,1.36,0,0,1,1-.41m-1.09,3.57h2.18v8.7h-2.18Z"/><path class="cls-1" d="M56.9,4.15h9.34V22.31a21.46,21.46,0,0,1,5.51-3.53,14.34,14.34,0,0,1,5.61-1.18,12.64,12.64,0,0,1,9.34,3.84Q90,24.75,90,31.19V55.8H80.61V39.46A40.45,40.45,0,0,0,80,30.69a6.12,6.12,0,0,0-2.08-3.43,5.78,5.78,0,0,0-3.65-1.14A6.84,6.84,0,0,0,69.44,28a10.06,10.06,0,0,0-2.79,5.14,42.07,42.07,0,0,0-.41,7.68v15H56.9Z"/><polygon class="cls-1" points="41.06 6.39 41.06 0 36.13 0 36.13 6.39 29.74 6.39 29.74 11.32 36.13 11.32 36.13 17.72 41.06 17.72 41.06 11.32 47.45 11.32 47.45 6.39 41.06 6.39"/><path d="M38.38,107.8v1.35A10.88,10.88,0,0,1,37.13,108v4.26H36.06v-4a13.79,13.79,0,0,1-1.66,1.24v-1.34A6.65,6.65,0,0,0,37.17,105H34.46v-1h1.6v-1.64h1.07V104h1.24v1a9.65,9.65,0,0,1-1.06,1.78,9.24,9.24,0,0,0,1.07,1"/><polygon points="40.87 102.33 41.97 102.33 41.97 105.31 44.22 105.31 44.22 106.43 41.97 106.43 41.97 110.75 44.46 110.75 44.46 111.87 38.22 111.87 38.22 110.75 40.87 110.75 40.87 106.43 38.67 106.43 38.67 105.31 40.87 105.31 40.87 102.33"/><path d="M31.05,112.2h1.38a24.83,24.83,0,0,0-2.3-3.08H28.72a14,14,0,0,1,1.36,1.62c-1.62.09-2.13.1-4.29.15.32-.6.61-1.2,1.12-2.37h5.48v-1H22.92v1h2.7a14.82,14.82,0,0,1-1,2.4l-1.51,0,0,1.09c1.59,0,2.09,0,7.6-.4.12.19.28.47.33.57"/><path d="M24.88,106.2v-.57a16.68,16.68,0,0,1-2.23,1.13v-1.28a9.36,9.36,0,0,0,4.43-3.19H28.3a9.36,9.36,0,0,0,4.43,3.19v1.28a16.68,16.68,0,0,1-2.23-1.13v.57Zm5-1a10.07,10.07,0,0,1-2.17-2,10.21,10.21,0,0,1-2.16,2Z"/><path d="M21.23,111.07v1.15c-3.27-.14-4-4-4-7.15H11.51v-1h5.66v-1.67h1.1c0,.54,0,.93,0,1.67H21v1H18.32c0,2,.37,5.82,2.91,6"/><path d="M11.46,110.75l.46,0c.25,0,1.43-.19,1.7-.24v-2.79H11.83v-1h4.66v1H14.7v2.66c1.21-.18,1.86-.31,2.26-.39v1c-1.7.37-4.25.77-5.51.93Z"/><polygon points="20.42 103.54 19.93 102.39 18.9 102.39 19.39 103.54 20.42 103.54"/><path d="M3.38,106.13a10.49,10.49,0,0,0,1.41-3.28H5.91a11.14,11.14,0,0,1-.28,1.1h.81v-1.59h1V104H9.7v1H7.48v1.47H9.91v1H7.81a6.81,6.81,0,0,0,2.06,2.56v1.54a9,9,0,0,1-2.37-2.9h0v3.5h-1v-3.47h0a11.36,11.36,0,0,1-2.74,2.9v-1.5a6.86,6.86,0,0,0,2.46-2.63H3.84v-1h2.6V105H5.29a8.21,8.21,0,0,1-.57,1.15Zm-1.84-.84H.05v-1H1.56v-1.89h1v1.89H3.84v1H2.56v.91a4.2,4.2,0,0,0,1,1.43v1.28a9.48,9.48,0,0,1-1-1.07h0v4.35h-1V107.8h0A8.93,8.93,0,0,1,0,109.86v-1.65a5.94,5.94,0,0,0,1.54-2.92"/><rect x="126.13" y="94.34" width="14.74" height="2.48"/><rect x="123.26" y="108.72" width="20.74" height="2.48"/><path d="M115.82,95.51V92.9h-2.48v2.61c0,12.5,5,16,6.68,16.82v-3c-1.62-1.43-4.2-5.09-4.2-13.83"/><path d="M103.47,95.51c0,8.75-2.59,12.41-4.2,13.84v3c1.67-.82,6.68-4.32,6.68-16.82V92.9h-2.48Z"/><polygon points="96.03 96.68 86.9 96.68 86.9 92.36 84.42 92.36 84.42 96.68 75.29 96.68 75.29 99.16 84.42 99.16 84.42 112.4 86.9 112.4 86.9 99.16 96.03 99.16 96.03 96.68"/><rect x="89.28" y="92.36" width="2.48" height="2.77"/><rect x="93.18" y="92.36" width="2.48" height="2.77"/><path d="M78.44,102.17a9.62,9.62,0,0,1-3.15,7v3.18a12.52,12.52,0,0,0,5.63-10.23v-.34H78.44Z"/><path d="M92.88,102.17v-.34H90.41v.34A12.54,12.54,0,0,0,96,112.4v-3.19a9.67,9.67,0,0,1-3.15-7"/><path d="M72.05,96.68h-3.9V92.36H65.68v4.32H57.34V92.36H54.86v4.32H51.31v2.48h3.55v5.65h2.48V99.16h8.34v2.45C65.68,107.85,63,110,55,110v2.47c6.82,0,13.13-1.31,13.13-10.82V99.16h3.9Z"/></g></g></svg>