<svg xmlns="http://www.w3.org/2000/svg" viewBox="0 0 112.13 78.5"><defs><style>.cls-1{fill:#7d7d7d;}</style></defs><g id="レイヤー_2" data-name="レイヤー 2"><g id="txt"><path class="cls-1" d="M31.8,32.19l-7.32,6.54q-3.84-5.43-7.84-5.43a4.72,4.72,0,0,0-3.17,1.05,3,3,0,0,0-1.24,2.35,4,4,0,0,0,.88,2.48,68.45,68.45,0,0,0,7.26,6.69c3.78,3.16,6.06,5.15,6.87,6a20.9,20.9,0,0,1,4.26,5.82,14.65,14.65,0,0,1,1.25,6.07,13.92,13.92,0,0,1-4.43,10.59c-2.95,2.78-6.81,4.17-11.55,4.17a17.09,17.09,0,0,1-9.7-2.74A21.54,21.54,0,0,1,0,67.17l8.32-5.05Q12.07,69,17,69a6.34,6.34,0,0,0,4.28-1.49A4.43,4.43,0,0,0,23,64.11a6,6,0,0,0-1.31-3.54,37.74,37.74,0,0,0-5.77-5.42q-8.49-6.93-11-10.71a13.67,13.67,0,0,1-2.47-7.53,12.31,12.31,0,0,1,4.12-9.3,14.27,14.27,0,0,1,10.18-3.88,16,16,0,0,1,7.42,1.82,27.38,27.38,0,0,1,7.63,6.64"/><path class="cls-1" d="M43.14,67l-1.42,1.42a2.36,2.36,0,0,0-1.56-.85,1,1,0,0,0-.6.16.47.47,0,0,0-.22.39.45.45,0,0,0,.14.34,2.71,2.71,0,0,0,.68.42l.83.41a4.81,4.81,0,0,1,1.82,1.3,2.61,2.61,0,0,1,.49,1.56,2.57,2.57,0,0,1-.88,2,3.48,3.48,0,0,1-2.37.79,3.77,3.77,0,0,1-3.16-1.54l1.4-1.52a2.84,2.84,0,0,0,.94.75,1.94,1.94,0,0,0,1,.29,1.16,1.16,0,0,0,.72-.21.62.62,0,0,0,.27-.49q0-.53-1-1l-.77-.38c-1.47-.73-2.2-1.64-2.2-2.75A2.39,2.39,0,0,1,38,66.27a3,3,0,0,1,2.12-.76,3.79,3.79,0,0,1,1.66.39A3.73,3.73,0,0,1,43.14,67"/><path class="cls-1" d="M51.71,65.73H54v9H51.71v-1a4.45,4.45,0,0,1-1.33.91,3.77,3.77,0,0,1-1.44.27,4,4,0,0,1-3-1.35,4.68,4.68,0,0,1-1.28-3.35,4.79,4.79,0,0,1,1.24-3.41,4,4,0,0,1,4.52-1,4.15,4.15,0,0,1,1.31.9Zm-2.36,1.86a2.27,2.27,0,0,0-1.73.73,3,3,0,0,0,0,3.81,2.29,2.29,0,0,0,1.73.75,2.32,2.32,0,0,0,1.76-.74,2.66,2.66,0,0,0,.7-1.93,2.58,2.58,0,0,0-.7-1.89,2.32,2.32,0,0,0-1.77-.73"/><path class="cls-1" d="M58.51,62.24v4.5a4.14,4.14,0,0,1,1.33-.92,3.86,3.86,0,0,1,1.52-.31,4,4,0,0,1,3,1.33,4.78,4.78,0,0,1,1.23,3.41,4.63,4.63,0,0,1-1.27,3.35,4,4,0,0,1-3,1.35,3.82,3.82,0,0,1-1.45-.27,4.62,4.62,0,0,1-1.34-.91v1H56.25V62.24Zm2.36,5.35a2.32,2.32,0,0,0-1.76.73,2.58,2.58,0,0,0-.7,1.89,2.66,2.66,0,0,0,.7,1.93,2.33,2.33,0,0,0,1.76.74,2.29,2.29,0,0,0,1.73-.75,3,3,0,0,0,0-3.81,2.28,2.28,0,0,0-1.74-.73"/><path class="cls-1" d="M71.67,65.51a4.81,4.81,0,0,1,2.39.64,4.61,4.61,0,0,1,2.37,4.07,4.68,4.68,0,0,1-.63,2.38,4.61,4.61,0,0,1-1.72,1.73,4.79,4.79,0,0,1-2.4.62,4.46,4.46,0,0,1-3.3-1.37A4.56,4.56,0,0,1,67,70.24a4.72,4.72,0,0,1,4.65-4.73m0,2.13a2.26,2.26,0,0,0-1.72.74,2.56,2.56,0,0,0-.69,1.87,2.67,2.67,0,0,0,.67,1.9,2.43,2.43,0,0,0,3.47,0,2.69,2.69,0,0,0,.69-1.9,2.63,2.63,0,0,0-.68-1.89,2.31,2.31,0,0,0-1.74-.72"/><path class="cls-1" d="M78.29,62.24h2.26v4.42a5.3,5.3,0,0,1,1.34-.86,3.38,3.38,0,0,1,1.35-.29,3.1,3.1,0,0,1,2.27.93,3.25,3.25,0,0,1,.78,2.36v5.94H84V70.8a9.8,9.8,0,0,0-.14-2.11,1.48,1.48,0,0,0-.51-.83,1.42,1.42,0,0,0-.88-.27,1.66,1.66,0,0,0-1.17.45,2.42,2.42,0,0,0-.68,1.24,9.81,9.81,0,0,0-.1,1.85v3.61H78.29Z"/><path class="cls-1" d="M95.11,65.73h2.26v9H95.11v-1a4.58,4.58,0,0,1-1.33.91,3.8,3.8,0,0,1-1.44.27,4,4,0,0,1-3-1.35A4.72,4.72,0,0,1,88,70.25a4.82,4.82,0,0,1,1.23-3.41,4,4,0,0,1,3-1.33,3.86,3.86,0,0,1,1.52.31,4.08,4.08,0,0,1,1.32.9Zm-2.36,1.86a2.31,2.31,0,0,0-1.74.73,3,3,0,0,0,0,3.81,2.29,2.29,0,0,0,1.73.75,2.31,2.31,0,0,0,1.75-.74,2.63,2.63,0,0,0,.71-1.93,2.55,2.55,0,0,0-.71-1.89,2.31,2.31,0,0,0-1.76-.73"/><path class="cls-1" d="M99.65,65.73h2.26v.93a5.34,5.34,0,0,1,1.4-.89,3.37,3.37,0,0,1,1.28-.26,3.09,3.09,0,0,1,2.28.94,3.18,3.18,0,0,1,.78,2.35v5.94h-2.26V70.8a9.72,9.72,0,0,0-.14-2.13,1.4,1.4,0,0,0-.5-.8,1.38,1.38,0,0,0-.88-.28,1.69,1.69,0,0,0-1.18.45,2.52,2.52,0,0,0-.68,1.27,10.85,10.85,0,0,0-.1,1.83v3.6H99.65Z"/><path class="cls-1" d="M110.71,62a1.39,1.39,0,0,1,1,.43,1.47,1.47,0,0,1,.41,1,1.44,1.44,0,0,1-.41,1,1.4,1.4,0,0,1-2,0,1.44,1.44,0,0,1-.42-1A1.45,1.45,0,0,1,110.71,62m-1.13,3.7h2.26v9h-2.26Z"/><path class="cls-1" d="M36.28,4.3H46V23.1a22,22,0,0,1,5.71-3.65,14.78,14.78,0,0,1,5.81-1.22,13.11,13.11,0,0,1,9.67,4c2.25,2.3,3.37,5.66,3.37,10.11V57.79H60.85V40.86a42.07,42.07,0,0,0-.64-9.08,6.31,6.31,0,0,0-2.16-3.55,6,6,0,0,0-3.77-1.17,7.11,7.11,0,0,0-5,2,10.49,10.49,0,0,0-2.89,5.32,44.7,44.7,0,0,0-.42,8V57.79H36.28Z"/><polygon class="cls-1" points="19.88 6.62 19.88 0 14.77 0 14.77 6.62 8.15 6.62 8.15 11.72 14.77 11.72 14.77 18.35 19.88 18.35 19.88 11.72 26.5 11.72 26.5 6.62 19.88 6.62"/></g></g></svg>