<?xml version="1.0" encoding="utf-8"?>
<!-- Generator: Adobe Illustrator 25.1.0, SVG Export Plug-In . SVG Version: 6.00 Build 0)  -->
<svg version="1.1" id="レイヤー_1" xmlns="http://www.w3.org/2000/svg" xmlns:xlink="http://www.w3.org/1999/xlink" x="0px"
	 y="0px" viewBox="0 0 170 120" style="enable-background:new 0 0 170 120;" xml:space="preserve">
<style type="text/css">
	.st0{fill:#7D7D7D;}
</style>
<g id="レイヤー_2_1_">
	<g id="txt">
		<path class="st0" d="M49.5,49.7l-10.7,9.6c-3.8-5.3-7.6-7.9-11.5-7.9c-1.7-0.1-3.3,0.5-4.6,1.5c-1.1,0.8-1.8,2.1-1.8,3.4
			c0,1.3,0.5,2.6,1.3,3.6c1.2,1.5,4.7,4.8,10.6,9.8c5.5,4.6,8.9,7.5,10,8.7c2.6,2.5,4.7,5.3,6.2,8.5c1.2,2.8,1.9,5.8,1.8,8.9
			c0.2,5.9-2.2,11.5-6.5,15.5c-4.3,4.1-9.9,6.1-16.9,6.1c-5,0.1-10-1.3-14.2-4c-4-2.7-7.4-6.9-10.3-12.6l12.2-7.4
			c3.7,6.8,7.9,10.2,12.7,10.2c2.3,0.1,4.5-0.7,6.3-2.2c1.6-1.2,2.5-3,2.5-5c-0.1-1.9-0.7-3.7-1.9-5.2c-1.3-1.8-4.1-4.4-8.4-8
			c-8.3-6.8-13.6-12-16-15.7c-2.3-3.2-3.5-7.1-3.6-11c-0.1-5.2,2.1-10.1,6-13.6c4-3.8,9.4-5.8,14.9-5.7c3.8,0,7.5,0.9,10.8,2.7
			C41.8,41.7,45.5,45,49.5,49.7"/>
		<path class="st0" d="M66.1,100.6l-2.1,2.1c-0.6-0.7-1.4-1.1-2.3-1.2c-0.3,0-0.6,0.1-0.9,0.2c-0.2,0.1-0.3,0.3-0.3,0.6
			c0,0.2,0.1,0.4,0.2,0.5c0.3,0.3,0.6,0.5,1,0.6l1.2,0.6c1,0.4,1.9,1.1,2.7,1.9c1.1,1.6,0.9,3.9-0.6,5.2c-1,0.8-2.2,1.2-3.5,1.2
			c-1.8,0-3.5-0.8-4.6-2.3l2-2.2c0.4,0.4,0.8,0.8,1.4,1.1c0.4,0.2,0.9,0.4,1.4,0.4c0.4,0,0.8-0.1,1.1-0.3c0.2-0.2,0.4-0.4,0.4-0.7
			c0-0.5-0.5-1-1.5-1.5l-1.1-0.6c-2.2-1.1-3.2-2.4-3.2-4c0-1,0.4-2,1.2-2.7c0.9-0.8,2-1.2,3.1-1.1C63.5,98.4,65.1,99.2,66.1,100.6"
			/>
		<path class="st0" d="M78.6,98.7h3.3v13.2h-3.3v-1.4c-0.6,0.6-1.2,1-1.9,1.3c-0.7,0.3-1.4,0.4-2.1,0.4c-1.7,0-3.3-0.7-4.4-2
			c-1.2-1.3-1.9-3.1-1.9-4.9c-0.1-1.8,0.6-3.6,1.8-5c1.7-1.8,4.3-2.4,6.6-1.5c0.7,0.3,1.4,0.8,1.9,1.3L78.6,98.7z M75.2,101.4
			c-1,0-1.9,0.4-2.5,1.1c-1.4,1.6-1.4,4,0,5.6c0.6,0.7,1.6,1.1,2.5,1.1c1,0,1.9-0.4,2.6-1.1c0.7-0.8,1.1-1.8,1-2.8
			c0.1-1-0.3-2-1-2.8C77.1,101.8,76.1,101.4,75.2,101.4"/>
		<path class="st0" d="M88.6,93.6v6.6c0.6-0.6,1.2-1,1.9-1.3c0.7-0.3,1.5-0.4,2.2-0.4c1.7,0,3.3,0.7,4.4,1.9c1.2,1.4,1.9,3.2,1.8,5
			c0.1,1.8-0.6,3.6-1.8,4.9c-1.1,1.3-2.7,2-4.4,2c-0.7,0-1.4-0.1-2.1-0.4c-0.7-0.3-1.4-0.8-2-1.3v1.4h-3.3V93.6H88.6z M92,101.4
			c-1,0-1.9,0.4-2.6,1.1c-0.7,0.7-1.1,1.7-1,2.8c-0.1,1,0.3,2.1,1,2.8c1.4,1.4,3.6,1.5,5,0.1c0,0,0.1-0.1,0.1-0.1
			c0.7-0.8,1-1.8,1-2.8c0-1-0.3-2-1-2.8C93.9,101.8,93,101.4,92,101.4"/>
		<path class="st0" d="M107.8,98.4c1.2,0,2.4,0.3,3.5,0.9c1.1,0.6,2,1.5,2.6,2.5c1.2,2.1,1.2,4.8,0,6.9c-0.6,1.1-1.5,1.9-2.5,2.5
			c-1.1,0.6-2.3,0.9-3.5,0.9c-1.8,0-3.6-0.7-4.8-2c-2.7-2.8-2.6-7.2,0.2-9.9c0,0,0.1-0.1,0.1-0.1C104.5,99.1,106.1,98.4,107.8,98.4
			 M107.9,101.5c-1,0-1.9,0.4-2.5,1.1c-0.7,0.7-1,1.7-1,2.7c0,1,0.3,2,1,2.8c0.6,0.7,1.6,1.1,2.5,1.1c1,0,1.9-0.4,2.6-1.1
			c0.7-0.8,1-1.8,1-2.8c0-1-0.3-2-1-2.8C109.8,101.9,108.9,101.5,107.9,101.5"/>
		<path class="st0" d="M117.5,93.6h3.3v6.5c0.6-0.5,1.3-0.9,2-1.3c0.6-0.3,1.3-0.4,2-0.4c1.2,0,2.4,0.5,3.3,1.4
			c0.8,0.9,1.2,2.2,1.2,3.4v8.7H126v-5.8c0-1,0-2.1-0.2-3.1c-0.1-0.5-0.4-0.9-0.7-1.2c-0.4-0.3-0.8-0.4-1.3-0.4
			c-0.6,0-1.3,0.2-1.7,0.7c-0.5,0.5-0.9,1.1-1,1.8c-0.1,0.9-0.2,1.8-0.2,2.7v5.3h-3.3L117.5,93.6z"/>
		<path class="st0" d="M142.1,98.7h3.3v13.2h-3.3v-1.4c-0.6,0.5-1.2,1-2,1.3c-0.7,0.3-1.4,0.4-2.1,0.4c-1.7,0-3.3-0.7-4.4-2
			c-1.2-1.3-1.9-3.1-1.9-4.9c-0.1-1.8,0.6-3.6,1.8-5c1.1-1.3,2.7-2,4.4-1.9c0.8,0,1.5,0.1,2.2,0.4c0.7,0.3,1.4,0.8,1.9,1.3V98.7z
			 M138.7,101.4c-1,0-1.9,0.4-2.5,1.1c-0.7,0.8-1,1.8-1,2.8c0,1,0.3,2,1,2.8c1.4,1.4,3.6,1.5,5,0.1c0,0,0.1-0.1,0.1-0.1
			c0.7-0.8,1.1-1.8,1-2.8c0.1-1-0.3-2-1-2.8C140.5,101.8,139.6,101.4,138.7,101.4"/>
		<path class="st0" d="M148.7,98.7h3.3v1.4c0.6-0.5,1.3-1,2-1.3c0.6-0.2,1.2-0.4,1.9-0.4c1.3,0,2.5,0.5,3.3,1.4
			c0.8,0.9,1.2,2.2,1.1,3.4v8.7h-3.3v-5.8c0-1,0-2.1-0.2-3.1c-0.1-0.5-0.4-0.9-0.7-1.2c-0.4-0.3-0.8-0.4-1.3-0.4
			c-0.6,0-1.3,0.2-1.7,0.7c-0.5,0.5-0.9,1.2-1,1.9c-0.1,0.9-0.1,1.8-0.1,2.6v5.3h-3.3L148.7,98.7z"/>
		<path class="st0" d="M164.9,93.3c0.6,0,1.1,0.2,1.5,0.6c0.8,0.8,0.8,2.2,0,3c-0.8,0.8-2.1,0.8-2.9,0.1c0,0,0,0-0.1-0.1
			c-0.4-0.4-0.6-1-0.6-1.5C162.8,94.3,163.8,93.3,164.9,93.3 M163.3,98.7h3.3v13.2h-3.3V98.7z"/>
		<path class="st0" d="M56.1,8.9h14.1v27.5c2.5-2.2,5.3-4,8.3-5.3c2.7-1.2,5.6-1.8,8.5-1.8c5.3-0.1,10.5,2,14.2,5.8
			c3.3,3.4,4.9,8.3,4.9,14.8v37.3H92V62.4c0-6.5-0.3-11-0.9-13.3c-0.4-2-1.6-3.9-3.2-5.2c-1.6-1.2-3.5-1.8-5.5-1.7
			c-2.7,0-5.4,1-7.3,2.9c-2.1,2.1-3.6,4.8-4.2,7.8c-0.4,1.7-0.6,5.6-0.6,11.6v22.7H56.1V8.9z"/>
		<polygon class="st0" points="32.1,12.3 32.1,2.6 24.6,2.6 24.6,12.3 14.9,12.3 14.9,19.7 24.6,19.7 24.6,29.4 32.1,29.4 
			32.1,19.7 41.8,19.7 41.8,12.3 		"/>
	</g>
</g>
</svg>
