<?xml version="1.0" encoding="utf-8"?>
<!-- Generator: Adobe Illustrator 25.1.0, SVG Export Plug-In . SVG Version: 6.00 Build 0)  -->
<svg version="1.1" id="レイヤー_1" xmlns="http://www.w3.org/2000/svg" xmlns:xlink="http://www.w3.org/1999/xlink" x="0px"
	 y="0px" viewBox="0 0 212 20" style="enable-background:new 0 0 212 20;" xml:space="preserve">
<style type="text/css">
	.st0{fill:#7B7B7B;}
	.st1{fill:#7C7D7D;}
</style>
<g id="レイヤー_2_1_">
	<g id="txt">
		<path class="st0" d="M12.5,13.1c0.1,1.3-0.6,2.6-1.6,3.3c-1.3,0.9-2.8,1.5-4.4,1.5c-1.5,0.1-3-0.3-4.3-1.1c-1.4-0.9-2.2-2.4-2.3-4
			h2.6c0,0.8,0.4,1.6,1.1,2.1c0.8,0.6,1.9,0.9,2.9,0.9c0.9,0,1.7-0.3,2.5-0.8c0.7-0.4,1.2-1.1,1.2-1.9c0-1.1-1.3-2.1-3.9-3.1
			C2.4,8.6,0.8,7.1,0.7,4.7C0.6,3.3,1.3,2,2.5,1.3c1.1-0.7,2.5-1.1,3.8-1C8,0.3,9.7,0.9,11,1.9c0.7,0.8,1,1.9,1,2.9H9.6
			c0-0.6-0.2-1.2-0.6-1.6c-0.7-0.6-1.7-1-2.6-1c-0.8,0-1.6,0.2-2.2,0.6c-0.7,0.4-1,1.1-1,1.9c0,1.2,1.4,2.3,4.1,3.4
			C10.8,9.5,12.6,11.2,12.5,13.1"/>
		<path class="st0" d="M22.5,17.4c0,0,0-0.6,0-0.9c-1.4,0.5-3,0.9-4.5,0.9c-1,0-2-0.4-2.7-1.1c-0.6-0.6-0.9-1.3-0.9-2.1
			c0-1.2,0.5-2.4,1.4-3.2c1.1-0.9,3.4-0.7,6.6-0.8c0-0.9-0.1-1.7-0.5-2.6c-0.5-0.5-1.3-0.8-2-0.7c-0.7-0.1-1.4,0.1-2,0.4
			c-0.5,0.4-0.9,0.9-1,1.6h-2.3c0.3-1.1,0.9-2.2,1.8-2.9c1.1-0.6,2.3-0.8,3.5-0.8c1.2-0.1,2.4,0.3,3.4,1.1c0.7,0.7,1,1.6,1.1,3.9
			v7.3H22.5z M22.5,14.8v-3.2c-1.6,0-4.2,0-5,0.4c-0.6,0.4-1,1.1-0.9,1.8c0,0.4,0.2,0.9,0.5,1.2c0.4,0.3,0.9,0.5,1.4,0.5
			C19.8,15.5,21.1,15.3,22.5,14.8"/>
		<path class="st0" d="M38.3,11.3c0,5.8-4,6.3-5.2,6.3c-1.5,0.2-3-0.6-3.8-1.9v1.8h-2.1V0.7h2.1v6.4c0.9-1.2,2.3-1.9,3.8-1.9
			C34.7,5.2,38.3,5.5,38.3,11.3 M36.3,11.3c0-1.2-0.3-4.1-3.2-4.1s-3.5,3-3.5,4.1c0,1.3,0.2,4.3,3.4,4.3S36.3,12.5,36.3,11.3"/>
		<path class="st0" d="M51.8,11.3c0.1,1.6-0.4,3.1-1.3,4.3c-1,1.3-2.6,2-4.2,2c-1.4,0-2.8-0.6-3.8-1.6c-1.2-1.3-1.8-3-1.7-4.7
			c-0.1-1.7,0.6-3.4,1.8-4.6c2.1-2.1,5.5-2.1,7.5,0C51.2,7.9,51.9,9.6,51.8,11.3 M49.5,11.3c0.1-1.1-0.3-2.2-1-3.1
			c-0.6-0.7-1.4-1.1-2.3-1.1c-0.8,0-1.6,0.3-2.1,0.9c-0.8,0.9-1.2,2.1-1.1,3.3c0,1,0.2,2,0.7,2.8c0.5,0.9,1.5,1.5,2.6,1.4
			c0.8,0,1.7-0.4,2.2-1C49.2,13.7,49.6,12.5,49.5,11.3"/>
		<rect x="103.6" y="0.7" class="st0" width="2.2" height="16.8"/>
		<rect x="132.1" y="14.9" class="st0" width="2.4" height="2.5"/>
		<rect x="91.5" y="5.1" class="st0" width="2.1" height="12.4"/>
		<rect x="91.5" y="0.6" class="st0" width="2.1" height="2.2"/>
		<path class="st0" d="M74.6,17.4c0,0,0-0.6,0-0.9c-1.5,0.5-3,0.8-4.5,0.9c-1,0-2-0.4-2.7-1.1c-0.6-0.6-0.9-1.3-0.9-2.1
			c0-1.2,0.5-2.4,1.5-3.2c1.1-0.9,3.4-0.7,6.6-0.8c0-0.9-0.2-1.8-0.5-2.6c-0.5-0.5-1.3-0.8-2-0.7c-0.7-0.1-1.4,0.1-2,0.4
			c-0.5,0.4-0.9,0.9-1,1.6h-2.3c0.3-1.1,0.9-2.2,1.8-2.9c1.1-0.6,2.3-0.8,3.5-0.8c1.2-0.1,2.4,0.3,3.4,1.1c0.7,0.7,1,1.6,1.1,3.9
			v7.3L74.6,17.4z M74.6,14.8v-3.2c-1.6,0-4.2,0-5,0.4c-0.6,0.4-1,1.1-0.9,1.8c0,0.4,0.2,0.8,0.4,1.2c0.4,0.3,0.9,0.5,1.4,0.5
			C72,15.5,73.3,15.3,74.6,14.8"/>
		<path class="st0" d="M129.2,6.3c0.8,0.7,1.2,1.6,1.3,2.6h-2c0-0.6-0.4-1.2-0.9-1.6c-0.6-0.4-1.2-0.6-1.9-0.5c-1,0-1.9,0.4-2.6,1.2
			c-0.6,0.9-0.9,2-0.9,3.1c-0.1,1.1,0.2,2.2,0.7,3.1c0.6,0.9,1.7,1.3,2.8,1.2c0.9,0.1,1.9-0.3,2.4-1.1c0.3-0.5,0.5-1,0.6-1.6h2
			c-0.1,1.1-0.5,2.2-1.3,3.1c-1.1,1-2.5,1.6-4,1.5c-1.2,0-2.4-0.4-3.4-1.2c-1.2-1.1-1.8-2.8-1.8-5c-0.1-1.5,0.4-3,1.4-4.2
			C123.4,4.9,126.8,4.6,129.2,6.3"/>
		<path class="st0" d="M89.6,17.5h-2.1V9.1c0-1.2-1.8-1.8-3.1-1.8c-1.2-0.1-2.5,0.4-3.4,1.2v8.9H79V5.1h2.1v1.1
			c1.1-0.8,2.4-1.1,3.8-1.1c2,0,4.8,1,4.8,3V17.5z"/>
		<path class="st0" d="M118.4,17.5h-2.1V9.1c0-1.2-1.8-1.8-3.1-1.8c-1.2-0.1-2.5,0.4-3.4,1.2v8.9h-2.1V5.1h2.1v1.1
			c1.1-0.8,2.4-1.1,3.8-1.1c2,0,4.8,1,4.8,3V17.5z"/>
		<path class="st0" d="M63.8,17.5h-2.1V9.1c0-1.2-1.8-1.8-3.1-1.8c-1.2-0.1-2.5,0.4-3.4,1.2v8.9h-2.1V0.7h2.1v5.5
			c1.1-0.8,2.4-1.1,3.8-1.1c2,0,4.8,1,4.8,3V17.5z"/>
		<polygon class="st1" points="161.2,3.2 155.2,3.2 155.2,17.3 153.1,17.3 153.1,3.2 147,3.2 147,1.3 161.2,1.3 		"/>
		<polygon class="st1" points="184.4,17.3 181.9,17.3 177.7,11.5 175.7,13.2 175.7,17.3 173.8,17.3 173.8,1.3 175.7,1.3 175.7,10.8 
			181.4,6 184.3,6 179.2,10.3 		"/>
		<path class="st1" d="M197.2,6l-3.6,8.1c-0.7,1.7-1.6,3.3-2.9,4.6c-1,0.7-2.2,1.1-3.5,1l-1.4,0v-2h1.4c0.9,0.1,1.8-0.2,2.4-0.9
			c0.3-0.4,0.6-0.7,0.8-1.1l-4.9-9.7h2.3l3.6,7.6c0.1-0.2,0.2-0.5,0.4-0.9l2.8-6.7L197.2,6z"/>
		<path class="st0" d="M171.6,11.3c0.1,1.6-0.4,3.1-1.3,4.3c-1,1.2-2.5,2-4.2,2c-1.4,0-2.8-0.6-3.8-1.6c-1.2-1.3-1.8-3-1.7-4.7
			c-0.1-1.7,0.6-3.4,1.8-4.6c1-1,2.4-1.6,3.8-1.5c1.4,0,2.8,0.5,3.8,1.6C171,8,171.6,9.6,171.6,11.3 M169.3,11.3
			c0.1-1.1-0.3-2.2-1-3.1c-0.6-0.7-1.4-1.1-2.3-1.1c-0.8,0-1.6,0.3-2.1,0.9c-0.8,0.9-1.2,2.1-1.1,3.3c0,1,0.2,2,0.7,2.8
			c0.5,0.9,1.5,1.5,2.6,1.4c0.8,0,1.7-0.4,2.2-1C169,13.7,169.4,12.5,169.3,11.3"/>
		<path class="st0" d="M208.6,11.3c0.1,1.6-0.4,3.1-1.4,4.3c-1,1.2-2.5,2-4.2,2c-1.4,0-2.8-0.6-3.8-1.6c-1.2-1.3-1.8-3-1.7-4.7
			c-0.1-1.7,0.6-3.4,1.8-4.6c1-1,2.4-1.6,3.8-1.5c1.4,0,2.8,0.5,3.8,1.6C208,8,208.7,9.6,208.6,11.3 M206.3,11.3
			c0.1-1.1-0.3-2.2-1-3.1c-0.6-0.7-1.4-1.1-2.3-1.1c-0.8,0-1.6,0.3-2.1,0.9c-0.8,0.9-1.2,2.1-1.1,3.3c0,1,0.2,2,0.7,2.8
			c0.5,0.9,1.5,1.5,2.6,1.4c0.8,0,1.7-0.4,2.2-1C206,13.7,206.4,12.5,206.3,11.3"/>
	</g>
</g>
</svg>
