<?xml version="1.0" encoding="utf-8"?>
<!-- Generator: Adobe Illustrator 25.1.0, SVG Export Plug-In . SVG Version: 6.00 Build 0)  -->
<svg version="1.1" id="レイヤー_1" xmlns="http://www.w3.org/2000/svg" xmlns:xlink="http://www.w3.org/1999/xlink" x="0px"
	 y="0px" viewBox="0 0 212 20" style="enable-background:new 0 0 212 20;" xml:space="preserve">
<style type="text/css">
	.st0{fill:#7B7B7B;}
</style>
<g id="レイヤー_2_1_">
	<g id="txt">
		<path class="st0" d="M12.5,14c0,1.3-0.6,2.6-1.6,3.4c-1.3,0.9-2.8,1.5-4.4,1.5c-1.5,0.1-3-0.3-4.3-1.1c-1.4-0.9-2.2-2.4-2.3-4h2.6
			c0,0.8,0.4,1.6,1.1,2.1c0.8,0.6,1.9,0.9,2.9,0.9c0.9,0,1.7-0.3,2.5-0.8c0.7-0.4,1.2-1.1,1.2-1.9c0-1.1-1.3-2.1-3.9-3.1
			C2.4,9.5,0.8,8,0.7,5.6C0.6,4.2,1.3,2.9,2.5,2.2c1.2-0.7,2.5-1.1,3.8-1c1.7,0,3.3,0.5,4.6,1.6c0.7,0.8,1,1.9,1,2.9H9.6
			c0-0.6-0.2-1.2-0.6-1.6c-0.7-0.6-1.7-1-2.6-1c-0.8,0-1.6,0.2-2.2,0.6c-0.7,0.4-1,1.1-1,1.9c0,1.2,1.4,2.3,4.1,3.4
			C10.8,10.4,12.6,12.1,12.5,14"/>
		<path class="st0" d="M22.5,18.4c0,0,0-0.6,0-0.9c-1.4,0.5-3,0.9-4.5,0.9c-1,0-2-0.4-2.7-1.1c-0.6-0.6-0.9-1.3-0.9-2.1
			c0-1.2,0.5-2.4,1.5-3.2c1.1-0.9,3.4-0.7,6.6-0.8c0-0.9-0.1-1.7-0.5-2.6c-0.5-0.5-1.3-0.8-2-0.7c-0.7-0.1-1.4,0.1-2,0.4
			c-0.5,0.4-0.9,0.9-1,1.6h-2.3c0.3-1.1,0.9-2.2,1.8-2.9C17.6,6.3,18.8,6,20,6.1c1.2-0.1,2.4,0.3,3.4,1.1c0.7,0.7,1,1.6,1.1,3.9v7.3
			L22.5,18.4z M22.5,15.7v-3.2c-1.6,0-4.2,0-5,0.4c-0.6,0.4-1,1.1-0.9,1.8c0,0.4,0.2,0.9,0.5,1.2c0.4,0.3,0.9,0.5,1.4,0.5
			C19.8,16.5,21.1,16.2,22.5,15.7"/>
		<path class="st0" d="M38.4,12.2c0,5.8-4,6.3-5.2,6.3c-1.5,0.2-3-0.6-3.8-1.9v1.8h-2.1V1.6h2.1V8c0.9-1.2,2.3-1.9,3.8-1.9
			C34.7,6.1,38.4,6.4,38.4,12.2 M36.4,12.2c0-1.2-0.3-4.1-3.2-4.1s-3.6,3-3.5,4.1s0.3,4.3,3.4,4.3S36.4,13.4,36.4,12.2"/>
		<path class="st0" d="M51.8,12.2c0.1,1.6-0.4,3.1-1.3,4.3c-1,1.3-2.6,2-4.2,2c-1.4,0-2.8-0.6-3.8-1.6c-1.2-1.3-1.8-3-1.7-4.7
			c-0.1-1.7,0.6-3.4,1.8-4.6c1-1,2.4-1.6,3.8-1.5c1.4,0,2.8,0.5,3.8,1.6C51.3,8.9,51.9,10.5,51.8,12.2 M49.6,12.2
			c0.1-1.1-0.3-2.2-1-3.1C48,8.4,47.2,8,46.3,8c-0.8,0-1.6,0.3-2.1,0.9c-0.8,0.9-1.2,2.1-1.2,3.3c0,1,0.2,2,0.7,2.8
			c0.5,0.9,1.5,1.5,2.6,1.4c0.8,0,1.7-0.4,2.2-1C49.2,14.6,49.6,13.4,49.6,12.2"/>
		<rect x="103.7" y="1.6" class="st0" width="2.2" height="16.8"/>
		<rect x="132.2" y="15.9" class="st0" width="2.4" height="2.5"/>
		<rect x="91.6" y="6" class="st0" width="2.1" height="12.4"/>
		<rect x="91.6" y="1.5" class="st0" width="2.1" height="2.2"/>
		<path class="st0" d="M74.7,18.4c0,0,0-0.6,0-0.9c-1.4,0.5-3,0.8-4.5,0.9c-1,0-2-0.4-2.7-1.1c-0.6-0.6-0.9-1.3-0.9-2.1
			c0-1.2,0.5-2.4,1.5-3.2c1.1-0.9,3.4-0.7,6.6-0.8c0-0.9-0.2-1.8-0.5-2.6c-0.5-0.5-1.3-0.8-2-0.7c-0.7-0.1-1.4,0.1-2,0.4
			c-0.5,0.4-0.9,0.9-1,1.6h-2.3c0.3-1.1,0.9-2.2,1.8-2.9c1.1-0.6,2.2-0.9,3.4-0.8c1.2-0.1,2.4,0.3,3.4,1.1c0.7,0.7,1,1.6,1.1,3.9
			v7.3L74.7,18.4z M74.7,15.8v-3.2c-1.6,0-4.2,0-5,0.4c-0.6,0.4-1,1.1-0.9,1.8c0,0.4,0.2,0.9,0.5,1.2c0.4,0.3,0.9,0.5,1.4,0.5
			C72,16.5,73.3,16.2,74.7,15.8"/>
		<path class="st0" d="M129.2,7.2c0.8,0.7,1.2,1.6,1.3,2.7h-2c0-0.6-0.4-1.2-0.9-1.6c-0.6-0.4-1.2-0.6-1.9-0.5c-1,0-1.9,0.4-2.6,1.1
			c-0.6,0.9-1,2-1,3.1c-0.1,1.1,0.2,2.2,0.7,3.1c0.6,0.9,1.7,1.3,2.8,1.2c1,0.1,1.9-0.3,2.4-1.1c0.3-0.5,0.5-1,0.6-1.6h2
			c-0.1,1.1-0.5,2.2-1.3,3.1c-1.1,1-2.5,1.6-4,1.5c-1.2,0-2.4-0.4-3.4-1.2c-1.3-1.3-2-3.2-1.9-5.1c-0.1-1.5,0.4-3,1.4-4.2
			C123.6,5.8,126.9,5.5,129.2,7.2"/>
		<path class="st0" d="M89.7,18.4h-2.1V10c0-1.1-1.8-1.8-3.1-1.8c-1.2-0.1-2.5,0.4-3.4,1.2v8.9H79V6h2.1v1.1
			c1.1-0.8,2.5-1.1,3.8-1.1c2,0,4.8,1,4.8,3.1V18.4z"/>
		<path class="st0" d="M118.4,18.4h-2.1V10c0-1.1-1.8-1.8-3.1-1.8c-1.2-0.1-2.5,0.4-3.4,1.2v8.9h-2.1V6h2.1v1.1
			c1.1-0.8,2.4-1.1,3.8-1.1c2,0,4.8,1,4.8,3.1L118.4,18.4z"/>
		<path class="st0" d="M63.9,18.4h-2.1V10c0-1.1-1.8-1.8-3.1-1.8c-1.2-0.1-2.5,0.4-3.4,1.2v8.9h-2.1V1.6h2.1v5.5
			C56.4,6.3,57.8,6,59.1,6c2,0,4.8,1,4.8,3.1L63.9,18.4z"/>
		<path class="st0" d="M157.4,18.5c-2,0-3.9-0.8-5.3-2.2c-1.7-1.7-2.5-4.1-2.4-6.5c-0.1-2.4,0.8-4.7,2.4-6.4
			c1.4-1.4,3.3-2.1,5.2-2.1c2-0.1,3.8,0.7,5.2,2.2c1.6,1.7,2.5,4,2.4,6.4c0.2,2.2-0.5,4.3-1.8,6C161.7,17.5,159.6,18.5,157.4,18.5
			 M157.4,3.4c-1.3,0-2.5,0.5-3.3,1.4c-1.3,1.4-1.9,3.2-1.8,5c-0.1,1.5,0.3,3,1.1,4.3c0.8,1.5,2.4,2.3,4.1,2.3
			c1.3,0,2.6-0.6,3.5-1.5c1.2-1.4,1.7-3.2,1.6-5c0.1-1.7-0.4-3.5-1.5-4.8C160.1,4,158.8,3.4,157.4,3.4"/>
		<polygon class="st0" points="200.6,18.7 198.1,18.7 193.9,12.8 191.9,14.5 191.9,18.7 189.9,18.7 189.9,2.5 191.9,2.5 191.9,12.1 
			197.6,7.2 200.5,7.2 195.4,11.6 		"/>
		<path class="st0" d="M175.6,15.3c0,0.9-0.4,1.9-1.2,2.4c-0.9,0.7-2,1-3.1,1c-1.1,0-2.1-0.2-3.1-0.8c-1-0.6-1.6-1.7-1.6-2.9h1.9
			c0,0.6,0.3,1.2,0.8,1.5c0.6,0.4,1.3,0.6,2.1,0.6c0.6,0,1.2-0.2,1.8-0.5c0.5-0.3,0.8-0.8,0.9-1.4c0-0.8-1-1.5-2.8-2.2
			c-2.8-1-3.9-2.1-4-3.8c-0.1-1,0.4-1.9,1.3-2.4c0.8-0.5,1.8-0.8,2.8-0.8c1.2,0,2.3,0.4,3.3,1.1c0.5,0.6,0.8,1.3,0.8,2.1h-1.7
			c0-0.4-0.1-0.8-0.4-1.1c-0.5-0.5-1.2-0.7-1.9-0.7c-0.6,0-1.1,0.1-1.6,0.4c-0.5,0.3-0.8,0.8-0.8,1.4c0,0.8,1,1.6,3,2.4
			C174.3,12.8,175.6,14,175.6,15.3"/>
		<path class="st0" d="M185.8,18.7c0,0,0-0.6,0-0.9c-1.5,0.6-3,0.9-4.5,0.9c-1,0-2-0.4-2.6-1.1c-0.6-0.6-0.9-1.3-0.9-2.1
			c0-1.2,0.5-2.4,1.5-3.2c1.1-0.9,3.4-0.7,6.6-0.8c0-0.9-0.2-1.8-0.5-2.6c-0.5-0.5-1.3-0.8-2-0.7c-0.7-0.1-1.4,0.1-2,0.4
			c-0.5,0.4-0.9,0.9-1,1.6H178c0.3-1.1,0.9-2.1,1.8-2.8c1.1-0.6,2.3-0.8,3.4-0.8c1.2-0.1,2.4,0.3,3.4,1.1c0.7,0.7,1,1.6,1.1,3.9v7.3
			L185.8,18.7z M185.8,16.1v-3.2c-1.6,0-4.2,0-5,0.4c-0.9,0.6-1.2,1.8-0.7,2.8c0.1,0.1,0.1,0.2,0.2,0.2c0.4,0.3,0.9,0.5,1.4,0.5
			C183.1,16.8,184.4,16.6,185.8,16.1"/>
		<path class="st0" d="M209.8,18.7c0,0,0-0.6,0-0.9c-1.5,0.5-3,0.9-4.5,0.9c-1,0-2-0.4-2.7-1.1c-0.6-0.6-0.9-1.3-0.9-2.1
			c0-1.2,0.5-2.4,1.5-3.2c1.1-0.9,3.4-0.7,6.6-0.8c0-0.9-0.2-1.8-0.5-2.6c-0.5-0.5-1.3-0.8-2-0.7c-0.7-0.1-1.4,0.1-2,0.4
			c-0.5,0.4-0.9,0.9-1,1.6H202c0.3-1.1,0.9-2.1,1.8-2.8c1.1-0.6,2.3-0.8,3.5-0.8c1.2-0.1,2.4,0.3,3.4,1.1c0.7,0.7,1,1.6,1.1,3.9v7.3
			L209.8,18.7z M209.8,16.1v-3.2c-1.6,0-4.2,0-5,0.4c-0.6,0.4-1,1.1-0.9,1.8c0,0.4,0.2,0.9,0.4,1.2c0.4,0.3,0.9,0.5,1.4,0.5
			C207.1,16.8,208.5,16.5,209.8,16.1"/>
	</g>
</g>
</svg>
