<svg xmlns="http://www.w3.org/2000/svg" viewBox="0 0 118 118"><defs><style>.cls-1{fill:#ff5001;}.cls-2{fill:#fff;}</style></defs><g id="レイヤー_2" data-name="レイヤー 2"><g id="txt"><rect class="cls-1" width="118" height="118"/><rect class="cls-2" x="29.87" y="28.37" width="59.83" height="6"/><rect class="cls-2" x="29.87" y="43.37" width="59.83" height="6"/><rect class="cls-2" x="29.87" y="58.37" width="59.83" height="6"/><path class="cls-2" d="M45.92,92.37H42.27L42,86.3c-.09-1.81-.18-4.07-.15-6.32h-.07c-.44,2-1,4.36-1.5,6l-1.67,6.09H35.71L34.2,86c-.42-1.63-.91-3.94-1.26-6h-.06c-.07,2.11-.18,4.51-.27,6.34l-.28,6.05H28.85l1.17-17h4.73l1.36,5.5c.48,2,1,4.09,1.3,6.1h.09c.35-2,.83-4.14,1.34-6.12l1.45-5.48H45Z"/><path class="cls-2" d="M58.24,92.37H48.58v-17h9.33v3.23H52.46V82h5.17v3.16H52.46v4h5.78Z"/><path class="cls-2" d="M73.27,92.37H69.42l-3-6.18a58.84,58.84,0,0,1-2.38-5.62H64c.11,2,.2,4.58.2,7.62v4.18H60.71v-17h4.13l2.91,6.1a57.14,57.14,0,0,1,2.33,5.41h0c-.2-2-.33-4.64-.33-7.46v-4h3.48Z"/><path class="cls-2" d="M88.71,85.24c0,4.86-2.2,7.37-6.27,7.37s-6.11-2.51-6.11-7.41V75.38H80.2V85.66c0,2.62.88,3.76,2.31,3.76s2.33-1.06,2.33-3.76V75.38h3.87Z"/></g></g></svg>